# xmcd
#
# Track frame offsets: 
#        150
#        16348
#        30755
#        46326
#        61239
#        81501
#        95216
#        107235
#        120745
#        129926
#
# Disc length: 2033 seconds
#
# Revision: 0
# Processed by: cddbd v1.5.2PL0 Copyright (c) Steve Scherf et al.
# Submitted via: ExactAudioCopy v0.99pb5
#
DISCID=7c07ef0a
DTITLE=Disentomb - Sunken Chambers Of Nephilim
DYEAR=2010
DGENRE=Brutal Death Metal
TTITLE0=Purity Severed By The Antediluvian
TTITLE1=Inhaling A Vomitous Iniquity
TTITLE2=Cystic Secretion
TTITLE3=Suspended On His Symbol Of Suffering
TTITLE4=Sunken Chambers Of Nephilim
TTITLE5=Abhorrent Expansion
TTITLE6=Subterranean Burial
TTITLE7=Incinerating The Angelic
TTITLE8=Gutted
TTITLE9=Impaled Upon The Throne
EXTD=
EXTT0=
EXTT1=
EXTT2=
EXTT3=
EXTT4=
EXTT5=
EXTT6=
EXTT7=
EXTT8=
EXTT9=
PLAYORDER=
